# xmcd CD database file
#
# Track frame offsets:
#	150
#	40576
#	76727
#	91487
#	121748
#	157823
#	187973
#
# Disc length: 2958 seconds
#
# Revision: 0
# Processed by: cddbd v1.5.1PL2 Copyright (c) Steve Scherf et al.
# Submitted via: CDex 1.51
#
DISCID=3f0b8c07
DTITLE=Romantic Delights - Romantic Saxophone
DYEAR=2005
DGENRE=Jazz
TTITLE0=You're The One
TTITLE1=Beneath The Streets
TTITLE2=Your Eyes
TTITLE3=In Your Arms
TTITLE4=Kiss Me Again
TTITLE5=Love Me
TTITLE6=Make It Last
EXTD=YEAR: 2005
EXTT0=
EXTT1=
EXTT2=
EXTT3=
EXTT4=
EXTT5=
EXTT6=
PLAYORDER=
